<svg width="100" height="100" viewBox="0 0 100 100" fill="none" xmlns="http://www.w3.org/2000/svg">
<circle cx="50" cy="50" r="50" fill="#113D01"/>
<path d="M65.728 89L47.136 57.08H34.816V89H24.624V10.936H49.824C55.7227 10.936 60.688 11.944 64.72 13.96C68.8267 15.976 71.888 18.7013 73.904 22.136C75.92 25.5707 76.928 29.4907 76.928 33.896C76.928 39.272 75.36 44.0133 72.224 48.12C69.1627 52.2267 64.5333 54.952 58.336 56.296L77.936 89H65.728ZM34.816 48.904H49.824C55.3493 48.904 59.4933 47.56 62.256 44.872C65.0187 42.1093 66.4 38.4507 66.4 33.896C66.4 29.2667 65.0187 25.6827 62.256 23.144C59.568 20.6053 55.424 19.336 49.824 19.336H34.816V48.904Z" fill="#FCFFF8"/>
</svg>
