<svg width="25" height="25" viewBox="0 0 25 25" fill="none" xmlns="http://www.w3.org/2000/svg">
<path d="M25 12.5C25 19.4036 19.4036 25 12.5 25C5.59644 25 0 19.4036 0 12.5C0 5.59644 5.59644 0 12.5 0C19.4036 0 25 5.59644 25 12.5Z" fill="url(#paint0_linear_37_18)"/>
<path d="M6.72 5.84C7.05333 5.85333 7.48 5.86667 8 5.88C8.52 5.89333 9.04 5.9 9.56 5.9C10.2133 5.9 10.8333 5.89333 11.42 5.88C12.0067 5.86667 12.42 5.86 12.66 5.86C13.86 5.86 14.8467 6.00667 15.62 6.3C16.4067 6.58 16.9933 6.98 17.38 7.5C17.7667 8.02 17.96 8.63333 17.96 9.34C17.96 9.78 17.8733 10.2333 17.7 10.7C17.5267 11.1533 17.2267 11.5733 16.8 11.96C16.3733 12.3467 15.7867 12.6667 15.04 12.92C14.3067 13.16 13.3667 13.28 12.22 13.28H10.3V12.88H12.02C12.86 12.88 13.5 12.7333 13.94 12.44C14.3933 12.1333 14.6933 11.7333 14.84 11.24C15 10.7333 15.08 10.1733 15.08 9.56C15.08 8.50667 14.8733 7.69333 14.46 7.12C14.0467 6.53333 13.3333 6.24 12.32 6.24C11.7733 6.24 11.4133 6.35333 11.24 6.58C11.08 6.80667 11 7.26667 11 7.96V17.88C11 18.36 11.04 18.72 11.12 18.96C11.2 19.2 11.3467 19.36 11.56 19.44C11.7867 19.52 12.1133 19.5733 12.54 19.6V20C12.2067 19.9733 11.78 19.96 11.26 19.96C10.74 19.9467 10.2133 19.94 9.68 19.94C9.08 19.94 8.52 19.9467 8 19.96C7.48 19.96 7.05333 19.9733 6.72 20V19.6C7.16 19.5733 7.48667 19.52 7.7 19.44C7.92667 19.36 8.07333 19.2 8.14 18.96C8.22 18.72 8.26 18.36 8.26 17.88V7.96C8.26 7.46667 8.22 7.10667 8.14 6.88C8.07333 6.64 7.92667 6.48 7.7 6.4C7.48667 6.30667 7.16 6.25333 6.72 6.24V5.84ZM10.3 12.94C10.9267 12.9667 11.4467 13 11.86 13.04C12.2867 13.0667 12.6467 13.0933 12.94 13.12C13.2467 13.1467 13.52 13.18 13.76 13.22C14.8667 13.3267 15.68 13.5867 16.2 14C16.7333 14.4 17.0867 15.0133 17.26 15.84L17.72 17.9C17.84 18.4467 17.9667 18.84 18.1 19.08C18.2467 19.3067 18.4533 19.4133 18.72 19.4C18.9067 19.4 19.0667 19.3533 19.2 19.26C19.3333 19.1533 19.4667 19.0133 19.6 18.84L19.88 19.08C19.5467 19.4933 19.1933 19.8 18.82 20C18.4467 20.1867 17.9733 20.28 17.4 20.28C16.76 20.28 16.22 20.1333 15.78 19.84C15.34 19.5333 15.04 18.96 14.88 18.12L14.5 16.12C14.3933 15.56 14.2667 15.0667 14.12 14.64C13.9867 14.2133 13.8 13.88 13.56 13.64C13.32 13.4 12.9667 13.28 12.5 13.28H10.34L10.3 12.94Z" fill="#141414"/>
<defs>
<linearGradient id="paint0_linear_37_18" x1="12.5" y1="0" x2="12.5" y2="25" gradientUnits="userSpaceOnUse">
<stop stop-color="#E1A1E2"/>
<stop offset="1" stop-color="#E587E6"/>
</linearGradient>
</defs>
</svg>
