<svg width="200" height="200" viewBox="0 0 200 200" fill="none" xmlns="http://www.w3.org/2000/svg">
<g clip-path="url(#clip0_115_453)">
<rect width="200" height="200" rx="100" fill="#0E0E0E"/>
<path d="M39.992 123.38H25.208L6.896 104.564L25.208 85.664H39.992L21.68 104.564L39.992 123.38ZM53.7706 128V74.24H118.703C123.799 74.24 128.363 74.828 132.395 76.004C136.483 77.124 139.703 79.028 142.055 81.716C144.463 84.404 145.667 88.072 145.667 92.72C145.667 95.8 145.107 98.348 143.987 100.364C142.867 102.38 141.327 103.948 139.367 105.068C137.407 106.188 135.167 107 132.647 107.504C130.127 108.008 127.495 108.316 124.751 108.428L118.619 107.252C125.283 107.308 130.407 107.588 133.991 108.092C137.631 108.596 140.151 109.52 141.551 110.864C143.007 112.152 143.735 114.028 143.735 116.492V128H122.735V119.012C122.735 117.332 122.399 116.072 121.727 115.232C121.111 114.336 119.711 113.72 117.527 113.384C115.399 113.048 112.095 112.88 107.615 112.88H74.7706V128H53.7706ZM74.7706 98.852H118.703C120.383 98.852 121.783 98.572 122.903 98.012C124.079 97.452 124.667 96.388 124.667 94.82C124.667 93.364 124.079 92.384 122.903 91.88C121.783 91.32 120.383 91.04 118.703 91.04H74.7706V98.852ZM159.31 123.38L177.706 104.564L159.31 85.664H174.094L192.406 104.564L174.094 123.38H159.31Z" fill="#C8F06E"/>
</g>
<defs>
<clipPath id="clip0_115_453">
<rect width="200" height="200" rx="100" fill="white"/>
</clipPath>
</defs>
</svg>
