<svg width="130" height="130" viewBox="0 0 130 130" fill="none" xmlns="http://www.w3.org/2000/svg">
<path d="M130 65C130 100.899 100.899 130 65 130C29.1015 130 0 100.899 0 65C0 29.1015 29.1015 0 65 0C100.899 0 130 29.1015 130 65Z" fill="url(#paint0_linear_45_462)" fill-opacity="0.8"/>
<path d="M57.444 104.76H58.064V106H40.58V104.76H41.2C41.7787 104.76 42.316 104.512 42.812 104.016C43.308 103.52 43.7213 102.941 44.052 102.28C44.4653 101.619 44.7547 100.916 44.92 100.172C45.0853 99.3453 45.168 98.6013 45.168 97.94V31.848C45.168 31.2693 45.0853 30.608 44.92 29.864C44.7547 29.12 44.4653 28.4173 44.052 27.756C43.7213 27.0947 43.308 26.5573 42.812 26.144C42.316 25.648 41.7787 25.4 41.2 25.4H40.58V24.16H62.156C70.4227 24.16 76.788 25.772 81.252 28.996C85.7987 32.22 88.072 36.9733 88.072 43.256C88.072 46.3973 87.5347 49.1667 86.46 51.564C85.468 53.8787 84.104 55.904 82.368 57.64C80.632 59.2933 78.5653 60.6573 76.168 61.732C73.8533 62.724 71.3733 63.468 68.728 63.964L77.656 77.604C79.8053 80.9107 81.996 84.176 84.228 87.4C86.46 90.5413 88.6507 93.8067 90.8 97.196C91.3787 98.0227 91.9987 98.8907 92.66 99.8C93.404 100.709 94.148 101.536 94.892 102.28C95.7187 103.024 96.5453 103.644 97.372 104.14C98.2813 104.553 99.1907 104.76 100.1 104.76V106H94.768C91.4613 106 88.7333 105.215 86.584 103.644C84.5173 101.991 82.7813 100.089 81.376 97.94C77.656 92.484 73.936 86.9453 70.216 81.324C66.5787 75.7027 62.9413 70.164 59.304 64.708C58.3947 64.6253 57.4027 64.5427 56.328 64.46C55.336 64.2947 54.3853 64.1293 53.476 63.964V97.94C53.476 98.6013 53.5587 99.3453 53.724 100.172C53.8893 100.916 54.1373 101.619 54.468 102.28C54.8813 102.941 55.2947 103.52 55.708 104.016C56.204 104.512 56.7827 104.76 57.444 104.76ZM53.476 28.376V59.872H54.096C54.7573 59.9547 55.7907 60.0373 57.196 60.12C58.684 60.12 60.5027 60.12 62.652 60.12C64.388 60.12 66.2067 59.872 68.108 59.376C70.092 58.7973 71.9107 57.888 73.564 56.648C75.3 55.3253 76.7053 53.6307 77.78 51.564C78.9373 49.4973 79.516 46.8933 79.516 43.752C79.516 40.6107 78.896 38.048 77.656 36.064C76.4987 34.08 74.8453 32.5093 72.696 31.352C70.6293 30.1947 68.108 29.4093 65.132 28.996C62.156 28.5827 58.8907 28.376 55.336 28.376H53.476Z" fill="black"/>
<defs>
<linearGradient id="paint0_linear_45_462" x1="65" y1="0" x2="65" y2="130" gradientUnits="userSpaceOnUse">
<stop stop-color="#CEE4A1"/>
<stop offset="1" stop-color="#89A945"/>
</linearGradient>
</defs>
</svg>
