<svg width="17" height="17" viewBox="0 0 17 17" fill="none" xmlns="http://www.w3.org/2000/svg">
<path d="M6.31883 12.2559C6.31883 12.309 6.25773 12.3515 6.1807 12.3515C6.09305 12.3595 6.03195 12.317 6.03195 12.2559C6.03195 12.2028 6.09305 12.1603 6.17008 12.1603C6.24977 12.1523 6.31883 12.1948 6.31883 12.2559ZM5.49273 12.1364C5.47414 12.1895 5.52727 12.2506 5.60695 12.2665C5.67602 12.2931 5.7557 12.2665 5.77164 12.2134C5.78758 12.1603 5.73711 12.0992 5.65742 12.0753C5.58836 12.0567 5.51133 12.0833 5.49273 12.1364ZM6.6668 12.0912C6.58977 12.1098 6.53664 12.1603 6.54461 12.2214C6.55258 12.2745 6.62164 12.309 6.70133 12.2904C6.77836 12.2719 6.83148 12.2214 6.82352 12.1683C6.81555 12.1178 6.74383 12.0833 6.6668 12.0912ZM8.41461 1.91248C4.73039 1.91248 1.91211 4.70951 1.91211 8.39373C1.91211 11.3395 3.76617 13.8603 6.41445 14.7475C6.75445 14.8086 6.87398 14.5987 6.87398 14.4261C6.87398 14.2614 6.86602 13.3529 6.86602 12.7951C6.86602 12.7951 5.00664 13.1936 4.61617 12.0036C4.61617 12.0036 4.31336 11.2306 3.87773 11.0314C3.87773 11.0314 3.26945 10.6144 3.92023 10.6223C3.92023 10.6223 4.58164 10.6754 4.94555 11.3076C5.52727 12.3329 6.50211 12.0381 6.88195 11.8628C6.94305 11.4378 7.1157 11.1429 7.30695 10.9676C5.82211 10.8029 4.32398 10.5878 4.32398 8.03248C4.32398 7.30201 4.52586 6.93544 4.95086 6.46794C4.8818 6.29529 4.65602 5.58341 5.01992 4.66435C5.57508 4.49169 6.85273 5.38154 6.85273 5.38154C7.38398 5.23279 7.95508 5.15576 8.52086 5.15576C9.08664 5.15576 9.65773 5.23279 10.189 5.38154C10.189 5.38154 11.4666 4.48904 12.0218 4.66435C12.3857 5.58607 12.1599 6.29529 12.0909 6.46794C12.5159 6.9381 12.7762 7.30466 12.7762 8.03248C12.7762 10.5958 11.2116 10.8003 9.7268 10.9676C9.97117 11.1775 10.1784 11.5759 10.1784 12.2001C10.1784 13.0953 10.1704 14.2029 10.1704 14.4208C10.1704 14.5934 10.2926 14.8033 10.6299 14.7422C13.2862 13.8603 15.0871 11.3395 15.0871 8.39373C15.0871 4.70951 12.0988 1.91248 8.41461 1.91248ZM4.49398 11.0739C4.45945 11.1004 4.46742 11.1615 4.51258 11.212C4.55508 11.2545 4.61617 11.2731 4.6507 11.2386C4.68523 11.212 4.67727 11.1509 4.63211 11.1004C4.58961 11.0579 4.52852 11.0394 4.49398 11.0739ZM4.20711 10.8587C4.18852 10.8933 4.21508 10.9358 4.2682 10.9623C4.3107 10.9889 4.36383 10.9809 4.38242 10.9437C4.40102 10.9092 4.37445 10.8667 4.32133 10.8401C4.2682 10.8242 4.2257 10.8322 4.20711 10.8587ZM5.06773 11.8044C5.02523 11.8389 5.04117 11.9186 5.10227 11.969C5.16336 12.0301 5.24039 12.0381 5.27492 11.9956C5.30945 11.9611 5.29352 11.8814 5.24039 11.8309C5.18195 11.7698 5.10227 11.7619 5.06773 11.8044ZM4.76492 11.4139C4.72242 11.4404 4.72242 11.5095 4.76492 11.5706C4.80742 11.6317 4.87914 11.6583 4.91367 11.6317C4.95617 11.5972 4.95617 11.5281 4.91367 11.467C4.87648 11.4059 4.80742 11.3794 4.76492 11.4139Z" fill="#C8F06E"/>
</svg>
