<svg width="15" height="15" viewBox="0 0 15 15" fill="none" xmlns="http://www.w3.org/2000/svg">
<path d="M12.2992 1.20001H2.69922C1.87122 1.20001 1.19922 1.87201 1.19922 2.70001V12.3C1.19922 13.128 1.87122 13.8 2.69922 13.8H12.2992C13.1272 13.8 13.7992 13.128 13.7992 12.3V2.70001C13.7992 1.87201 13.1272 1.20001 12.2992 1.20001ZM5.09922 6.00001V11.7H3.29922V6.00001H5.09922ZM3.29922 4.34101C3.29922 3.92101 3.65922 3.60001 4.19922 3.60001C4.73922 3.60001 5.07822 3.92101 5.09922 4.34101C5.09922 4.76101 4.76322 5.10001 4.19922 5.10001C3.65922 5.10001 3.29922 4.76101 3.29922 4.34101ZM11.6992 11.7H9.89922C9.89922 11.7 9.89922 8.92201 9.89922 8.70001C9.89922 8.10001 9.59922 7.50001 8.84922 7.48801H8.82522C8.09922 7.48801 7.79922 8.10601 7.79922 8.70001C7.79922 8.97301 7.79922 11.7 7.79922 11.7H5.99922V6.00001H7.79922V6.76801C7.79922 6.76801 8.37822 6.00001 9.54222 6.00001C10.7332 6.00001 11.6992 6.81901 11.6992 8.47801V11.7Z" fill="#C8F06E"/>
</svg>
