<svg width="48" height="48" viewBox="0 0 48 48" fill="none" xmlns="http://www.w3.org/2000/svg">
<path d="M27 0C28.1046 5.15404e-07 29 0.895431 29 2V4.62988C30.6096 5.04416 32.1404 5.65445 33.5664 6.43262L35.5859 4.41406C36.3669 3.63322 37.6331 3.63322 38.4141 4.41406L42.6572 8.65723C43.4379 9.43825 43.438 10.7044 42.6572 11.4854L40.877 13.2646C41.99 15.0108 42.8392 16.9412 43.3691 19H46C47.1046 19 48 19.8954 48 21V27C48 28.1046 47.1046 29 46 29H43.3691C42.9012 30.8179 42.1835 32.535 41.2559 34.1143L42.5977 35.4561C43.3787 36.2371 43.3787 37.5031 42.5977 38.2842L38.3555 42.5273C37.5746 43.3081 36.3084 43.3079 35.5273 42.5273L34.2031 41.2031C32.5995 42.1563 30.852 42.8924 29 43.3691V46C29 47.1046 28.1046 48 27 48H21C19.8954 48 19 47.1046 19 46V43.3691C16.9409 42.8392 15.01 41.9902 13.2637 40.877L11.5439 42.5977C10.7629 43.3787 9.49687 43.3787 8.71582 42.5977L4.47266 38.3555C3.6919 37.5746 3.69209 36.3084 4.47266 35.5273L6.43262 33.5664C5.65449 32.1405 5.04513 30.6095 4.63086 29H2C0.895431 29 -4.82823e-08 28.1046 0 27V21C4.82823e-08 19.8954 0.895431 19 2 19H4.63086C5.10759 17.1478 5.84267 15.3996 6.7959 13.7959L4.41406 11.4141C3.63322 10.6331 3.63322 9.36695 4.41406 8.58594L8.65723 4.34277C9.43825 3.56215 10.7044 3.562 11.4854 4.34277L13.8857 6.74316C15.4649 5.81561 17.1822 5.09774 19 4.62988V2C19 0.895431 19.8954 0 21 0H27ZM23.5 9C15.4919 9 9 15.4919 9 23.5C9 31.5081 15.4919 38 23.5 38C31.5081 38 38 31.5081 38 23.5C38 15.4919 31.5081 9 23.5 9ZM23.5 12C29.8513 12 35 17.1487 35 23.5C35 29.8513 29.8513 35 23.5 35C17.1487 35 12 29.8513 12 23.5C12 17.1487 17.1487 12 23.5 12ZM21.7461 24.2969C21.3578 23.9041 20.7238 23.9008 20.3311 24.2891L17.2969 27.2891C17.1069 27.4769 17 27.7329 17 28C17 28.2671 17.1069 28.5231 17.2969 28.7109L20.3311 31.7109C20.7238 32.0992 21.3578 32.0959 21.7461 31.7031C22.1342 31.3104 22.13 30.6773 21.7373 30.2891L20.4336 29H29C29.5523 29 30 28.5523 30 28C30 27.4477 29.5523 27 29 27H20.4336L21.7373 25.7109C22.13 25.3227 22.1342 24.6896 21.7461 24.2969ZM26.6689 15.2891C26.2762 14.9008 25.6422 14.9041 25.2539 15.2969C24.8658 15.6896 24.87 16.3227 25.2627 16.7109L26.5664 18H18C17.4477 18 17 18.4477 17 19C17 19.5523 17.4477 20 18 20H26.5664L25.2627 21.2891C24.87 21.6773 24.8658 22.3104 25.2539 22.7031C25.6422 23.0959 26.2762 23.0992 26.6689 22.7109L29.7031 19.7109C29.8931 19.5231 30 19.2671 30 19C30 18.7329 29.8931 18.4769 29.7031 18.2891L26.6689 15.2891Z" fill="black"/>
</svg>
