<svg width="60" height="60" viewBox="0 0 60 60" fill="none" xmlns="http://www.w3.org/2000/svg">
<path d="M50.856 6.666C50.476 6.242 49.934 6 49.366 6H10.634C10.066 6 9.52404 6.242 9.14404 6.666C8.76404 7.09 8.58404 7.656 8.64604 8.22L13.05 47.866C13.138 48.672 13.708 49.346 14.488 49.568L29.448 53.842C29.628 53.894 29.814 53.92 29.998 53.92C30.182 53.92 30.368 53.894 30.548 53.842L45.508 49.568C46.288 49.346 46.856 48.672 46.946 47.866L51.352 8.22C51.416 7.656 51.236 7.09 50.856 6.666ZM41.032 26.148L40.14 40.718L30.064 44.012L19.988 40.718L19.606 33.75H24.706L24.834 36.918L30.064 38.692L35.294 36.918L35.676 31.218H24.452L24.198 26.15H35.932L36.314 21.082H18.712L18.33 16.012H41.67L41.032 26.148Z" fill="black"/>
</svg>
