<svg width="60" height="60" viewBox="0 0 60 60" fill="none" xmlns="http://www.w3.org/2000/svg">
<path d="M30 2.3999V19.1999H21.6C16.974 19.1999 13.2 15.4259 13.2 10.7999C13.2 6.1739 16.974 2.3999 21.6 2.3999H30ZM30 21.5999V38.3999H21.6C16.974 38.3999 13.2 34.6259 13.2 29.9999C13.2 25.3739 16.974 21.5999 21.6 21.5999H30ZM30 40.7999V49.1999C30 53.8259 26.226 57.5999 21.6 57.5999C16.974 57.5999 13.2 53.8259 13.2 49.1999C13.2 44.5739 16.974 40.7999 21.6 40.7999H30ZM49.2 10.7999C49.2 15.4259 45.426 19.1999 40.8 19.1999H32.4V2.3999H40.8C45.426 2.3999 49.2 6.1739 49.2 10.7999ZM40.8 21.5999C38.5721 21.5999 36.4356 22.4849 34.8603 24.0602C33.2849 25.6355 32.4 27.7721 32.4 29.9999C32.4 32.2277 33.2849 34.3643 34.8603 35.9396C36.4356 37.5149 38.5721 38.3999 40.8 38.3999C43.0278 38.3999 45.1643 37.5149 46.7397 35.9396C48.315 34.3643 49.2 32.2277 49.2 29.9999C49.2 27.7721 48.315 25.6355 46.7397 24.0602C45.1643 22.4849 43.0278 21.5999 40.8 21.5999Z" fill="black"/>
</svg>
