<svg width="60" height="60" viewBox="0 0 60 60" fill="none" xmlns="http://www.w3.org/2000/svg">
<path d="M56.1515 26.5077L33.4921 3.84834C32.5312 2.88272 31.2655 2.3999 29.9999 2.3999C28.7343 2.3999 27.4687 2.88272 26.5077 3.84834L22.0265 8.32959L27.5718 13.8749C29.414 12.7921 31.814 13.0265 33.3937 14.6062C34.9733 16.1858 35.203 18.5858 34.1202 20.4233L39.5718 25.8749C41.414 24.7921 43.814 25.0265 45.3936 26.6062C47.2686 28.4812 47.2686 31.5187 45.3936 33.3937C43.5186 35.2687 40.4812 35.2687 38.6062 33.3937C37.0265 31.814 36.7921 29.414 37.8749 27.5718L32.4233 22.1202C32.0343 22.3499 31.6265 22.5187 31.1999 22.6265V37.3687C33.2671 37.903 34.7999 39.764 34.7999 41.9999C34.7999 44.653 32.653 46.7999 29.9999 46.7999C27.3468 46.7999 25.1999 44.653 25.1999 41.9999C25.1999 39.764 26.7327 37.903 28.7999 37.3687V22.6265C27.9983 22.4202 27.2343 22.0218 26.6062 21.3937C25.0265 19.814 24.7968 17.414 25.8796 15.5765L20.3296 10.0265L3.84834 26.5077C1.91709 28.4343 1.91709 31.5655 3.84834 33.4921L26.5077 56.1515C27.4687 57.1171 28.7343 57.5999 29.9999 57.5999C31.2655 57.5999 32.5312 57.1171 33.4921 56.1515L56.1515 33.4921C58.0827 31.5655 58.0827 28.4343 56.1515 26.5077Z" fill="black"/>
</svg>
