<svg width="60" height="60" viewBox="0 0 60 60" fill="none" xmlns="http://www.w3.org/2000/svg">
<path d="M27.25 5.25019C15.75 6.50019 6.50002 15.7502 5.25002 27.0002C4.00002 38.7502 10.75 49.2502 21 53.2502C21.75 53.5002 22.5 53.0002 22.5 52.0002V48.0002C22.5 48.0002 21.5 48.2502 20.25 48.2502C16.75 48.2502 15.25 45.2502 15 43.5002C14.75 42.5002 14.25 41.7502 13.5 41.0002C12.75 40.7502 12.5 40.7502 12.5 40.5002C12.5 40.0002 13.25 40.0002 13.5 40.0002C15 40.0002 16.25 41.7502 16.75 42.5002C18 44.5002 19.5 45.0002 20.25 45.0002C21.25 45.0002 22 44.7502 22.5 44.5002C22.75 42.7502 23.5 41.0002 25 40.0002C19.25 38.7502 15 35.5002 15 30.0002C15 27.2502 16.25 24.5002 18 22.5002C17.75 22.0002 17.5 20.7502 17.5 19.0002C17.5 18.0002 17.5 16.7502 18 15.7502C18 15.2502 18.5 15.0002 18.75 15.0002H19C20.25 15.2502 22.75 16.0002 25 18.2502C26.5 17.7502 28.25 17.5002 30 17.5002C31.75 17.5002 33.5 17.7502 35 18.2502C37.25 16.0002 40 15.2502 41.25 15.0002H41.5C42 15.0002 42.25 15.2502 42.5 15.7502C42.5 16.7502 42.5 18.0002 42.5 19.0002C42.5 21.0002 42.25 22.0002 42 22.5002C43.75 24.5002 45 27.0002 45 30.0002C45 35.5002 40.75 38.7502 35 40.0002C36.5 41.2502 37.5 43.5002 37.5 45.7502V52.2502C37.5 53.0002 38.25 53.7502 39.25 53.5002C48.5 49.7502 55 40.7502 55 30.2502C55 15.2502 42.25 3.50019 27.25 5.25019Z" fill="black"/>
</svg>
