<svg width="23" height="22" viewBox="0 0 23 22" fill="none" xmlns="http://www.w3.org/2000/svg">
<g clip-path="url(#clip0_13_191)">
<path fill-rule="evenodd" clip-rule="evenodd" d="M11.4657 0C5.12548 0 0 5.04167 0 11.2789C0 16.2646 3.28407 20.485 7.83995 21.9787C8.40955 22.091 8.61819 21.736 8.61819 21.4374C8.61819 21.1759 8.59942 20.2796 8.59942 19.3458C5.40993 20.0182 4.74575 18.0013 4.74575 18.0013C4.23317 16.6941 3.4737 16.3581 3.4737 16.3581C2.42979 15.6672 3.54975 15.6672 3.54975 15.6672C4.70773 15.7419 5.31535 16.825 5.31535 16.825C6.34026 18.5428 7.9918 18.0574 8.65621 17.7586C8.75103 17.0303 9.05496 16.5261 9.37766 16.2461C6.83382 15.9846 4.15737 15.0136 4.15737 10.6812C4.15737 9.44877 4.61267 8.44044 5.33412 7.65623C5.2203 7.37619 4.82155 6.21821 5.44818 4.66835C5.44818 4.66835 6.4163 4.36952 8.59918 5.8261C9.53376 5.57921 10.4976 5.45362 11.4657 5.45256C12.4338 5.45256 13.4207 5.58342 14.3321 5.8261C16.5152 4.36952 17.4833 4.66835 17.4833 4.66835C18.1099 6.21821 17.7109 7.37619 17.5971 7.65623C18.3376 8.44044 18.7741 9.44877 18.7741 10.6812C18.7741 15.0136 16.0977 15.9658 13.5348 16.2461C13.9526 16.6008 14.313 17.273 14.313 18.3375C14.313 19.85 14.2943 21.0639 14.2943 21.4372C14.2943 21.736 14.5031 22.091 15.0725 21.9789C19.6284 20.4847 22.9125 16.2646 22.9125 11.2789C22.9312 5.04167 17.787 0 11.4657 0Z" fill="#FCFFF8"/>
</g>
<defs>
<clipPath id="clip0_13_191">
<rect width="23" height="22" fill="white"/>
</clipPath>
</defs>
</svg>
