<svg width="60" height="60" viewBox="0 0 60 60" fill="none" xmlns="http://www.w3.org/2000/svg">
<path d="M48 8H12C9.79 8 8 9.79 8 12V48C8 50.21 9.79 52 12 52H48C50.21 52 52 50.21 52 48V12C52 9.79 50.21 8 48 8ZM30 40.76C30 44.314 27.82 46.306 24.2 46.306C20.624 46.306 18.346 44.216 18.346 40.836H22.22C22.23 42.09 22.978 42.882 24.134 42.882C25.322 42.882 25.96 42.134 25.96 40.726V29.996H30V40.76ZM40.962 46.306C36.944 46.306 34.416 44.414 34.348 41.354H38.2C38.298 42.51 39.452 43.246 41.126 43.246C42.634 43.246 43.67 42.52 43.67 41.474C43.67 40.594 42.976 40.12 41.16 39.758L39.07 39.34C36.164 38.79 34.668 37.206 34.668 34.708C34.668 31.604 37.156 29.568 40.984 29.568C44.704 29.568 47.278 31.582 47.344 34.52H43.614C43.526 33.398 42.458 32.616 41.036 32.616C39.618 32.616 38.684 33.288 38.684 34.344C38.684 35.214 39.388 35.72 41.06 36.05L43.104 36.446C46.242 37.052 47.65 38.47 47.65 40.99C47.652 44.304 45.122 46.306 40.962 46.306Z" fill="black"/>
</svg>
