<svg width="60" height="60" viewBox="0 0 60 60" fill="none" xmlns="http://www.w3.org/2000/svg">
<path d="M48 8C50.2091 8 52 9.79086 52 12V48C52 50.2091 50.2091 52 48 52H12C9.79086 52 8 50.2091 8 48V12C8 9.79086 9.79086 8 12 8H48ZM19.5684 20.9277C18.703 20.9277 17.9471 21.067 17.3018 21.3457C16.6712 21.6244 16.1431 22.0277 15.7178 22.5557C15.2924 23.0837 14.97 23.7441 14.75 24.5361C14.5447 25.3281 14.4424 26.2449 14.4424 27.2861C14.4424 27.9606 14.339 28.5103 14.1338 28.9355C13.9432 29.3461 13.6429 29.6765 13.2324 29.9258L13.0117 30.0361C12.6307 30.256 12.4406 30.5418 12.4404 30.8936V31.5098C12.4404 31.8617 12.6305 32.1482 13.0117 32.3682L13.21 32.4775C13.6352 32.7122 13.9431 33.0426 14.1338 33.4678C14.3391 33.8784 14.4424 34.4288 14.4424 35.1182C14.4424 36.1594 14.5447 37.0762 14.75 37.8682C14.97 38.6599 15.2926 39.3197 15.7178 39.8477C16.1431 40.3903 16.6789 40.7936 17.3242 41.0576C17.9695 41.3363 18.7177 41.4834 19.5684 41.498H19.6777C19.8244 41.498 19.9423 41.4464 20.0303 41.3438C20.1181 41.2558 20.1621 41.1455 20.1621 41.0137V39.6064C20.1621 39.4598 20.1182 39.3419 20.0303 39.2539C19.9423 39.1659 19.839 39.1221 19.7217 39.1221L19.6123 39.0996C18.9523 39.0703 18.4389 38.9017 18.0723 38.5938C17.7203 38.3004 17.4709 37.8386 17.3242 37.208C17.1776 36.5774 17.1035 35.7561 17.1035 34.7441C17.1035 34.1721 17.0383 33.651 16.9062 33.1816C16.7743 32.7124 16.5833 32.3089 16.334 31.9717C16.0993 31.6198 15.8128 31.3634 15.4756 31.2021C15.9889 30.9382 16.3854 30.5055 16.6641 29.9043C16.9574 29.303 17.1035 28.5548 17.1035 27.6602C17.1035 26.6336 17.1776 25.8123 17.3242 25.1963C17.4709 24.5656 17.7271 24.1029 18.0938 23.8096C18.4604 23.5016 18.967 23.333 19.6123 23.3037H19.7217C19.839 23.3037 19.9423 23.2599 20.0303 23.1719C20.1181 23.084 20.162 22.9667 20.1621 22.8203V21.4121C20.1621 21.2654 20.1183 21.1476 20.0303 21.0596C19.9423 20.9716 19.8244 20.9277 19.6777 20.9277H19.5684ZM39.4385 20.9277C39.3065 20.9277 39.1886 20.9716 39.0859 21.0596C38.9979 21.1476 38.9541 21.2654 38.9541 21.4121V22.8203C38.9542 22.9667 38.9982 23.084 39.0859 23.1719C39.1739 23.2598 39.2841 23.3036 39.416 23.3037H39.5264C40.1861 23.333 40.692 23.5018 41.0439 23.8096C41.4106 24.1029 41.6678 24.5656 41.8145 25.1963C41.9611 25.8268 42.0342 26.6553 42.0342 27.6816C42.0342 28.2536 42.1004 28.7748 42.2324 29.2441C42.3644 29.7134 42.5476 30.1168 42.7822 30.4541C43.0315 30.7767 43.3249 31.033 43.6621 31.2236C43.1488 31.473 42.7455 31.8987 42.4521 32.5C42.1735 33.1012 42.0342 33.8565 42.0342 34.7656C42.0342 35.7776 41.9611 36.5998 41.8145 37.2305C41.6678 37.8609 41.4105 38.3229 41.0439 38.6162C40.692 38.9094 40.1784 39.0781 39.5039 39.1221H39.416C39.2841 39.1221 39.1739 39.166 39.0859 39.2539C38.998 39.3419 38.9541 39.4599 38.9541 39.6064V41.0137C38.9541 41.1455 38.9981 41.2558 39.0859 41.3438C39.1886 41.4464 39.3065 41.498 39.4385 41.498H39.5703C40.4356 41.4834 41.1838 41.3363 41.8145 41.0576C42.4597 40.7936 42.9946 40.3902 43.4199 39.8477C43.8452 39.3197 44.1609 38.667 44.3662 37.8896C44.5862 37.0977 44.6963 36.1808 44.6963 35.1396C44.6963 34.4506 44.7918 33.9008 44.9824 33.4902C45.1731 33.0649 45.4809 32.7347 45.9062 32.5L46.126 32.3896C46.5072 32.1697 46.6982 31.8841 46.6982 31.5322V30.8936C46.6981 30.5418 46.5071 30.256 46.126 30.0361L45.9062 29.9482C45.4956 29.6989 45.1878 29.3686 44.9824 28.958C44.7918 28.5327 44.6963 27.9823 44.6963 27.3076C44.6963 26.2518 44.5862 25.328 44.3662 24.5361C44.1609 23.7441 43.8453 23.0837 43.4199 22.5557C42.9946 22.0132 42.4596 21.6096 41.8145 21.3457C41.1691 21.067 40.4132 20.9277 39.5479 20.9277H39.4385ZM22.5918 34.7441C22.4453 34.7442 22.3204 34.7959 22.2178 34.8984C22.1154 35.001 22.0645 35.1328 22.0645 35.2939V37.4717C22.0645 37.6182 22.1153 37.7431 22.2178 37.8457C22.3204 37.9483 22.4453 37.9999 22.5918 38H24.792C24.9387 38 25.0633 37.9484 25.166 37.8457C25.2686 37.7431 25.3203 37.6183 25.3203 37.4717V35.2939C25.3203 35.1327 25.2686 35.0011 25.166 34.8984C25.0633 34.7958 24.9387 34.7441 24.792 34.7441H22.5918ZM28.4785 34.7441C28.332 34.7442 28.2071 34.7959 28.1045 34.8984C28.0021 35.001 27.9512 35.1328 27.9512 35.2939V37.4717C27.9512 37.6182 28.002 37.7431 28.1045 37.8457C28.2071 37.9483 28.332 37.9999 28.4785 38H30.6787C30.8254 38 30.9501 37.9484 31.0527 37.8457C31.1553 37.7431 31.207 37.6183 31.207 37.4717V35.2939C31.207 35.1327 31.1553 35.0011 31.0527 34.8984C30.9501 34.7958 30.8254 34.7441 30.6787 34.7441H28.4785ZM34.3652 34.7441C34.2187 34.7442 34.0938 34.7959 33.9912 34.8984C33.8888 35.001 33.8379 35.1328 33.8379 35.2939V37.4717C33.8379 37.6182 33.8888 37.7431 33.9912 37.8457C34.0938 37.9483 34.2187 37.9999 34.3652 38H36.5654C36.7121 38 36.8368 37.9484 36.9395 37.8457C37.0421 37.7431 37.0938 37.6183 37.0938 37.4717V35.2939C37.0937 35.1327 37.042 35.0011 36.9395 34.8984C36.8368 34.7958 36.7121 34.7441 36.5654 34.7441H34.3652Z" fill="black"/>
</svg>
