<svg width="25" height="25" viewBox="0 0 25 25" fill="none" xmlns="http://www.w3.org/2000/svg">
<path d="M10.0925 17.6875C10.2908 17.3492 10.2867 16.9334 10.0867 16.5967L9.07083 14.8917C8.84333 14.51 8.86999 14.0334 9.14333 13.6834C9.61583 13.0784 10.4108 12.1042 11.2583 11.2567C12.1058 10.4092 13.08 9.61419 13.685 9.14169C14.035 8.86836 14.5117 8.84169 14.8933 9.06919L16.5983 10.085C16.935 10.2859 17.3542 10.2875 17.6925 10.0892L21.9667 7.58669C22.38 7.34419 22.5833 6.86253 22.4692 6.39669C22.3583 5.94419 22.09 5.35669 21.4742 4.74086C19.5458 2.81253 16.2933 1.78836 9.04166 9.04003C1.78999 16.2917 2.81333 19.545 4.74166 21.4734C5.35916 22.0909 5.94749 22.3584 6.40083 22.4692C6.86583 22.5817 7.34416 22.3817 7.58583 21.9692C8.18833 20.9392 9.48916 18.7175 10.0925 17.6875Z" fill="black"/>
</svg>
