<svg width="80" height="80" viewBox="0 0 80 80" fill="none" xmlns="http://www.w3.org/2000/svg">
<path d="M38.4227 63.8242C38.1757 68.1714 37.3898 72.9231 37.8074 77.2527C38.0693 79.9464 41.7405 79.9516 42.0034 77.2527C42.421 72.9222 41.6368 68.1714 41.3898 63.8242C41.2808 61.9182 38.5317 61.9147 38.4227 63.8242Z" fill="url(#paint0_linear_40_367)" fill-opacity="0.8"/>
<path d="M55.601 58.175C57.055 59.8848 58.5091 61.5939 59.9649 63.3037C61.3953 64.9881 62.7491 66.8906 64.4317 68.3279C66.5284 70.1187 69.0287 67.469 67.397 65.3644C66.0432 63.6132 64.2155 62.1758 62.6005 60.6646C60.968 59.1349 59.3346 57.6053 57.7012 56.0747C56.2884 54.7525 54.3737 56.7306 55.601 58.175Z" fill="url(#paint1_linear_40_367)" fill-opacity="0.8"/>
<path d="M77.7513 42.7833C80.4854 42.5758 80.4054 38.8993 77.7513 38.5872C73.434 38.0826 68.6718 38.7692 64.3271 38.931C62.3992 39.0004 62.4335 41.753 64.3271 41.898C68.67 42.2321 73.4094 43.1147 77.7513 42.7833Z" fill="url(#paint2_linear_40_367)" fill-opacity="0.8"/>
<path d="M65.245 12.0941C63.5263 13.491 62.1329 15.3547 60.6595 17.0057L56.1812 22.0194C54.9065 23.4497 56.8511 25.3925 58.2797 24.1178C59.9518 22.6268 61.6265 21.1341 63.2986 19.6431C64.946 18.1714 66.8151 16.7745 68.2102 15.0594C69.9219 12.9565 67.3487 10.3842 65.245 12.0941Z" fill="url(#paint3_linear_40_367)" fill-opacity="0.8"/>
<path d="M37.4444 2.74726C37.1095 7.0866 37.9886 11.8268 38.3218 16.1714C38.4677 18.0615 41.2194 18.1011 41.2906 16.1714C41.4506 11.8259 42.1398 7.0655 41.637 2.74726C41.3293 0.0931938 37.6545 0.00703996 37.4444 2.74726Z" fill="url(#paint4_linear_40_367)" fill-opacity="0.8"/>
<path d="M13.9543 13.0391C11.9534 11.5376 9.92794 14.6488 11.411 16.3314C12.8756 17.9921 14.8018 19.3178 16.5073 20.7253C18.2427 22.1503 19.9772 23.5789 21.7108 25.0075C23.1622 26.2013 25.1631 24.3094 23.811 22.9072C20.6453 19.6334 17.5991 15.7688 13.9543 13.0391Z" fill="url(#paint5_linear_40_367)" fill-opacity="0.8"/>
<path d="M16.5432 39.1648C12.1977 38.9881 7.43728 38.2831 3.11816 38.771C0.459695 39.0708 0.38497 42.7455 3.11816 42.9653C7.45574 43.3152 12.2012 42.4501 16.5432 42.1345C18.4368 41.9956 18.4676 39.2422 16.5432 39.1648Z" fill="url(#paint6_linear_40_367)" fill-opacity="0.8"/>
<path d="M22.3904 55.8444C20.7016 57.3231 19.0128 58.7973 17.324 60.2708C15.6616 61.7283 13.7759 63.1042 12.3623 64.8053C10.6172 66.9072 13.2221 69.4479 15.3293 67.7723C17.0612 66.3938 18.4731 64.5442 19.9623 62.9116C21.4717 61.258 22.9812 59.5991 24.488 57.9446C25.7847 56.5248 23.8251 54.5916 22.3904 55.8444Z" fill="url(#paint7_linear_40_367)" fill-opacity="0.8"/>
<defs>
<linearGradient id="paint0_linear_40_367" x1="39.9055" y1="62.3934" x2="39.9055" y2="79.2749" gradientUnits="userSpaceOnUse">
<stop stop-color="#BCD588"/>
<stop offset="1" stop-color="#A2C061"/>
</linearGradient>
<linearGradient id="paint1_linear_40_367" x1="61.5654" y1="55.6395" x2="61.5654" y2="68.9195" gradientUnits="userSpaceOnUse">
<stop stop-color="#BCD588"/>
<stop offset="1" stop-color="#A2C061"/>
</linearGradient>
<linearGradient id="paint2_linear_40_367" x1="71.333" y1="38.4051" x2="71.333" y2="42.8565" gradientUnits="userSpaceOnUse">
<stop stop-color="#BCD588"/>
<stop offset="1" stop-color="#A2C061"/>
</linearGradient>
<linearGradient id="paint3_linear_40_367" x1="62.2681" y1="11.536" x2="62.2681" y2="24.5322" gradientUnits="userSpaceOnUse">
<stop stop-color="#BCD588"/>
<stop offset="1" stop-color="#A2C061"/>
</linearGradient>
<linearGradient id="paint4_linear_40_367" x1="39.5937" y1="0.724274" x2="39.5937" y2="17.6039" gradientUnits="userSpaceOnUse">
<stop stop-color="#BCD588"/>
<stop offset="1" stop-color="#A2C061"/>
</linearGradient>
<linearGradient id="paint5_linear_40_367" x1="17.58" y1="12.6411" x2="17.58" y2="25.3854" gradientUnits="userSpaceOnUse">
<stop stop-color="#BCD588"/>
<stop offset="1" stop-color="#A2C061"/>
</linearGradient>
<linearGradient id="paint6_linear_40_367" x1="9.53559" y1="38.6018" x2="9.53559" y2="43.0472" gradientUnits="userSpaceOnUse">
<stop stop-color="#BCD588"/>
<stop offset="1" stop-color="#A2C061"/>
</linearGradient>
<linearGradient id="paint7_linear_40_367" x1="18.3508" y1="55.4405" x2="18.3508" y2="68.3161" gradientUnits="userSpaceOnUse">
<stop stop-color="#BCD588"/>
<stop offset="1" stop-color="#A2C061"/>
</linearGradient>
</defs>
</svg>
