<svg width="40" height="39" viewBox="0 0 40 39" fill="none" xmlns="http://www.w3.org/2000/svg">
<path d="M40 19.5C40 14.3283 37.8929 9.36838 34.1421 5.71142C30.3914 2.05446 25.3043 3.90454e-07 20 0C14.6957 -3.90454e-07 9.60859 2.05446 5.85787 5.71142C2.10714 9.36838 8.00932e-07 14.3283 0 19.5L40 19.5Z" fill="url(#paint0_linear_62_28)"/>
<path d="M40 19.5C40 22.0608 39.4827 24.5965 38.4776 26.9623C37.4725 29.3282 35.9993 31.4778 34.1421 33.2886C32.285 35.0993 30.0802 36.5357 27.6537 37.5156C25.2272 38.4956 22.6264 39 20 39C17.3736 39 14.7728 38.4956 12.3463 37.5156C9.91982 36.5357 7.71504 35.0993 5.85786 33.2886C4.00069 31.4778 2.5275 29.3282 1.52241 26.9623C0.517315 24.5965 -2.2961e-07 22.0608 0 19.5L40 19.5Z" fill="url(#paint1_linear_62_28)"/>
<defs>
<linearGradient id="paint0_linear_62_28" x1="20" y1="0" x2="20" y2="39" gradientUnits="userSpaceOnUse">
<stop stop-color="#EA7FEB"/>
<stop offset="1" stop-color="#BB3FBD"/>
</linearGradient>
<linearGradient id="paint1_linear_62_28" x1="20" y1="0" x2="20" y2="39" gradientUnits="userSpaceOnUse">
<stop stop-color="#ED9DEE"/>
<stop offset="1" stop-color="#DD60E0"/>
</linearGradient>
</defs>
</svg>
