<svg width="5" height="18" viewBox="0 0 5 18" fill="none" xmlns="http://www.w3.org/2000/svg">
<path d="M5 0C4.34339 -1.4094e-08 3.69321 0.232792 3.08658 0.685084C2.47995 1.13738 1.92876 1.80031 1.46447 2.63604C1.00017 3.47177 0.631876 4.46392 0.380602 5.55585C0.129329 6.64778 -2.08713e-08 7.8181 0 9C2.08713e-08 10.1819 0.129329 11.3522 0.380602 12.4442C0.631876 13.5361 1.00017 14.5282 1.46447 15.364C1.92876 16.1997 2.47996 16.8626 3.08658 17.3149C3.69321 17.7672 4.34339 18 5 18L5 9L5 0Z" fill="url(#paint0_linear_62_131)"/>
<defs>
<linearGradient id="paint0_linear_62_131" x1="5" y1="0" x2="5" y2="18" gradientUnits="userSpaceOnUse">
<stop stop-color="#E587E6"/>
<stop offset="1" stop-color="#C253C4"/>
</linearGradient>
</defs>
</svg>
