<svg width="20" height="20" viewBox="0 0 20 20" fill="none" xmlns="http://www.w3.org/2000/svg">
<path d="M5.41659 13.3334C6.06936 13.3334 6.70478 13.4063 7.32284 13.5521C7.94089 13.698 8.55547 13.9167 9.16659 14.2084V6.00004C8.59714 5.66671 7.99297 5.41671 7.35409 5.25004C6.7152 5.08337 6.06936 5.00004 5.41659 5.00004C4.91659 5.00004 4.42006 5.04865 3.927 5.14587C3.43395 5.2431 2.95825 5.38893 2.49992 5.58337V13.8334C2.98603 13.6667 3.46867 13.5417 3.94784 13.4584C4.427 13.375 4.91659 13.3334 5.41659 13.3334ZM10.8333 14.2084C11.4444 13.9167 12.0589 13.698 12.677 13.5521C13.2951 13.4063 13.9305 13.3334 14.5833 13.3334C15.0833 13.3334 15.5728 13.375 16.052 13.4584C16.5312 13.5417 17.0138 13.6667 17.4999 13.8334V5.58337C17.0416 5.38893 16.5659 5.2431 16.0728 5.14587C15.5798 5.04865 15.0833 5.00004 14.5833 5.00004C13.9305 5.00004 13.2846 5.08337 12.6458 5.25004C12.0069 5.41671 11.4027 5.66671 10.8333 6.00004V14.2084ZM9.99992 16.2292C9.80547 16.2292 9.62145 16.2049 9.44784 16.1563C9.27422 16.1077 9.11103 16.0417 8.95825 15.9584C8.41659 15.6389 7.84714 15.3993 7.24992 15.2396C6.6527 15.0799 6.04159 15 5.41659 15C4.83325 15 4.26034 15.0764 3.69784 15.2292C3.13534 15.382 2.59714 15.5973 2.08325 15.875C1.79159 16.0278 1.51034 16.0209 1.2395 15.8542C0.968669 15.6875 0.833252 15.4445 0.833252 15.125V5.08337C0.833252 4.9306 0.871446 4.78476 0.947835 4.64587C1.02422 4.50699 1.13881 4.40282 1.29159 4.33337C1.93047 4.00004 2.59714 3.75004 3.29159 3.58337C3.98603 3.41671 4.69436 3.33337 5.41659 3.33337C6.22214 3.33337 7.01034 3.43754 7.78117 3.64587C8.552 3.85421 9.29159 4.16671 9.99992 4.58337C10.7083 4.16671 11.4478 3.85421 12.2187 3.64587C12.9895 3.43754 13.7777 3.33337 14.5833 3.33337C15.3055 3.33337 16.0138 3.41671 16.7083 3.58337C17.4027 3.75004 18.0694 4.00004 18.7083 4.33337C18.861 4.40282 18.9756 4.50699 19.052 4.64587C19.1284 4.78476 19.1666 4.9306 19.1666 5.08337V15.125C19.1666 15.4445 19.0312 15.6875 18.7603 15.8542C18.4895 16.0209 18.2083 16.0278 17.9166 15.875C17.4027 15.5973 16.8645 15.382 16.302 15.2292C15.7395 15.0764 15.1666 15 14.5833 15C13.9583 15 13.3471 15.0799 12.7499 15.2396C12.1527 15.3993 11.5833 15.6389 11.0416 15.9584C10.8888 16.0417 10.7256 16.1077 10.552 16.1563C10.3784 16.2049 10.1944 16.2292 9.99992 16.2292ZM11.6666 7.31254C11.6666 7.18754 11.7117 7.05907 11.802 6.92712C11.8923 6.79518 11.993 6.70837 12.1041 6.66671C12.5069 6.52782 12.9096 6.42365 13.3124 6.35421C13.7152 6.28476 14.1388 6.25004 14.5833 6.25004C14.861 6.25004 15.1353 6.2674 15.4062 6.30212C15.677 6.33685 15.9444 6.38199 16.2083 6.43754C16.3333 6.46532 16.4409 6.53476 16.5312 6.64587C16.6214 6.75699 16.6666 6.88199 16.6666 7.02087C16.6666 7.25699 16.5902 7.4306 16.4374 7.54171C16.2846 7.65282 16.0902 7.6806 15.8541 7.62504C15.6596 7.58337 15.4548 7.55212 15.2395 7.53129C15.0242 7.51046 14.8055 7.50004 14.5833 7.50004C14.2221 7.50004 13.868 7.53476 13.5208 7.60421C13.1735 7.67365 12.8402 7.76393 12.5208 7.87504C12.2708 7.97226 12.0659 7.96532 11.9062 7.85421C11.7464 7.7431 11.6666 7.56254 11.6666 7.31254ZM11.6666 11.8959C11.6666 11.7709 11.7117 11.6424 11.802 11.5105C11.8923 11.3785 11.993 11.2917 12.1041 11.25C12.5069 11.1112 12.9096 11.007 13.3124 10.9375C13.7152 10.8681 14.1388 10.8334 14.5833 10.8334C14.861 10.8334 15.1353 10.8507 15.4062 10.8855C15.677 10.9202 15.9444 10.9653 16.2083 11.0209C16.3333 11.0487 16.4409 11.1181 16.5312 11.2292C16.6214 11.3403 16.6666 11.4653 16.6666 11.6042C16.6666 11.8403 16.5902 12.0139 16.4374 12.125C16.2846 12.2362 16.0902 12.2639 15.8541 12.2084C15.6596 12.1667 15.4548 12.1355 15.2395 12.1146C15.0242 12.0938 14.8055 12.0834 14.5833 12.0834C14.2221 12.0834 13.868 12.1146 13.5208 12.1771C13.1735 12.2396 12.8402 12.3264 12.5208 12.4375C12.2708 12.5348 12.0659 12.5313 11.9062 12.4271C11.7464 12.323 11.6666 12.1459 11.6666 11.8959ZM11.6666 9.60421C11.6666 9.47921 11.7117 9.35074 11.802 9.21879C11.8923 9.08685 11.993 9.00004 12.1041 8.95837C12.5069 8.81949 12.9096 8.71532 13.3124 8.64587C13.7152 8.57643 14.1388 8.54171 14.5833 8.54171C14.861 8.54171 15.1353 8.55907 15.4062 8.59379C15.677 8.62851 15.9444 8.67365 16.2083 8.72921C16.3333 8.75699 16.4409 8.82643 16.5312 8.93754C16.6214 9.04865 16.6666 9.17365 16.6666 9.31254C16.6666 9.54865 16.5902 9.72226 16.4374 9.83337C16.2846 9.94449 16.0902 9.97226 15.8541 9.91671C15.6596 9.87504 15.4548 9.84379 15.2395 9.82296C15.0242 9.80212 14.8055 9.79171 14.5833 9.79171C14.2221 9.79171 13.868 9.82643 13.5208 9.89587C13.1735 9.96532 12.8402 10.0556 12.5208 10.1667C12.2708 10.2639 12.0659 10.257 11.9062 10.1459C11.7464 10.0348 11.6666 9.85421 11.6666 9.60421Z" fill="url(#paint0_linear_15_110)"/>
<defs>
<linearGradient id="paint0_linear_15_110" x1="9.99992" y1="3.33337" x2="9.99992" y2="16.2292" gradientUnits="userSpaceOnUse">
<stop stop-color="#E587E6"/>
<stop offset="1" stop-color="#C253C4"/>
</linearGradient>
</defs>
</svg>
