<svg width="223" height="36" viewBox="0 0 223 36" fill="none" xmlns="http://www.w3.org/2000/svg">
<path d="M207.569 0.871996L219.233 30.968C219.713 32.12 220.225 32.92 220.769 33.368C221.345 33.784 221.873 34.008 222.353 34.04V35C221.521 34.936 220.513 34.904 219.329 34.904C218.177 34.872 216.993 34.856 215.777 34.856C214.369 34.856 213.057 34.872 211.841 34.904C210.625 34.904 209.633 34.936 208.865 35V34.04C210.497 33.976 211.537 33.704 211.985 33.224C212.433 32.712 212.337 31.64 211.697 30.008L203.249 7.20799L204.113 6.152L196.433 26.072C195.825 27.672 195.457 28.984 195.329 30.008C195.201 31.032 195.281 31.832 195.569 32.408C195.857 32.984 196.337 33.4 197.009 33.656C197.681 33.88 198.513 34.008 199.505 34.04V35C198.481 34.936 197.489 34.904 196.529 34.904C195.569 34.872 194.609 34.856 193.649 34.856C192.945 34.856 192.273 34.872 191.633 34.904C191.025 34.904 190.481 34.936 190.001 35V34.04C190.705 33.88 191.393 33.464 192.065 32.792C192.769 32.12 193.441 30.952 194.081 29.288L205.073 0.871996C205.457 0.903996 205.873 0.919995 206.321 0.919995C206.769 0.919995 207.185 0.903996 207.569 0.871996ZM211.745 21.176V22.136H197.441L197.921 21.176H211.745Z" fill="#141414"/>
<path d="M191.939 1.016C191.811 2.48799 191.715 3.92799 191.651 5.336C191.619 6.712 191.603 7.76799 191.603 8.50399C191.603 9.24 191.619 9.928 191.651 10.568C191.683 11.208 191.715 11.768 191.747 12.248H190.643C190.195 9.68799 189.651 7.68799 189.011 6.24799C188.371 4.77599 187.523 3.71999 186.467 3.08C185.443 2.43999 184.083 2.11999 182.387 2.11999H180.851V29.48C180.851 30.792 180.963 31.768 181.187 32.408C181.443 33.048 181.939 33.48 182.675 33.704C183.411 33.896 184.483 34.008 185.891 34.04V35C184.931 34.936 183.683 34.904 182.147 34.904C180.611 34.872 179.043 34.856 177.443 34.856C175.779 34.856 174.211 34.872 172.739 34.904C171.299 34.904 170.131 34.936 169.235 35V34.04C170.611 34.008 171.667 33.896 172.403 33.704C173.139 33.48 173.635 33.048 173.891 32.408C174.147 31.768 174.275 30.792 174.275 29.48V2.11999H172.691C171.027 2.11999 169.667 2.43999 168.611 3.08C167.555 3.71999 166.707 4.77599 166.067 6.24799C165.427 7.68799 164.899 9.68799 164.483 12.248H163.379C163.443 11.768 163.475 11.208 163.475 10.568C163.507 9.928 163.523 9.24 163.523 8.50399C163.523 7.76799 163.491 6.712 163.427 5.336C163.395 3.92799 163.315 2.48799 163.187 1.016C164.595 1.048 166.147 1.08 167.843 1.112C169.539 1.144 171.235 1.16 172.931 1.16C174.627 1.16 176.179 1.16 177.587 1.16C178.963 1.16 180.499 1.16 182.195 1.16C183.891 1.16 185.587 1.144 187.283 1.112C188.979 1.08 190.531 1.048 191.939 1.016Z" fill="#141414"/>
<path d="M131.322 1.016C132.122 1.048 133.146 1.08 134.394 1.112C135.642 1.144 136.89 1.16 138.138 1.16C139.706 1.16 141.194 1.144 142.602 1.112C144.01 1.08 145.002 1.064 145.578 1.064C148.458 1.064 150.826 1.416 152.682 2.11999C154.57 2.792 155.978 3.752 156.906 5C157.834 6.248 158.298 7.71999 158.298 9.41599C158.298 10.472 158.09 11.56 157.674 12.68C157.258 13.768 156.538 14.776 155.514 15.704C154.49 16.632 153.082 17.4 151.29 18.008C149.53 18.584 147.274 18.872 144.522 18.872H139.914V17.912H144.042C146.058 17.912 147.594 17.56 148.65 16.856C149.738 16.12 150.458 15.16 150.81 13.976C151.194 12.76 151.386 11.416 151.386 9.944C151.386 7.416 150.89 5.464 149.898 4.08799C148.906 2.68 147.194 1.976 144.762 1.976C143.45 1.976 142.586 2.248 142.17 2.792C141.786 3.336 141.594 4.43999 141.594 6.10399V29.912C141.594 31.064 141.69 31.928 141.882 32.504C142.074 33.08 142.426 33.464 142.938 33.656C143.482 33.848 144.266 33.976 145.29 34.04V35C144.49 34.936 143.466 34.904 142.218 34.904C140.97 34.872 139.706 34.856 138.426 34.856C136.986 34.856 135.642 34.872 134.394 34.904C133.146 34.904 132.122 34.936 131.322 35V34.04C132.378 33.976 133.162 33.848 133.674 33.656C134.218 33.464 134.57 33.08 134.73 32.504C134.922 31.928 135.018 31.064 135.018 29.912V6.10399C135.018 4.91999 134.922 4.05599 134.73 3.512C134.57 2.936 134.218 2.552 133.674 2.36C133.162 2.136 132.378 2.00799 131.322 1.976V1.016ZM139.914 18.056C141.418 18.12 142.666 18.2 143.658 18.296C144.682 18.36 145.546 18.424 146.25 18.488C146.986 18.552 147.642 18.632 148.218 18.728C150.874 18.984 152.826 19.608 154.074 20.6C155.354 21.56 156.202 23.032 156.618 25.016L157.722 29.96C158.01 31.272 158.314 32.216 158.634 32.792C158.986 33.336 159.482 33.592 160.122 33.56C160.57 33.56 160.954 33.448 161.274 33.224C161.594 32.968 161.914 32.632 162.234 32.216L162.906 32.792C162.106 33.784 161.258 34.52 160.362 35C159.466 35.448 158.33 35.672 156.954 35.672C155.418 35.672 154.122 35.32 153.066 34.616C152.01 33.88 151.29 32.504 150.906 30.488L149.994 25.688C149.738 24.344 149.434 23.16 149.082 22.136C148.762 21.112 148.314 20.312 147.738 19.736C147.162 19.16 146.314 18.872 145.194 18.872H140.01L139.914 18.056Z" fill="#141414"/>
<path d="M126.426 1.016C126.298 2.32799 126.202 3.608 126.138 4.856C126.106 6.072 126.09 7 126.09 7.63999C126.09 8.248 126.106 8.84 126.138 9.41599C126.17 9.95999 126.202 10.424 126.234 10.808H125.13C124.874 8.6 124.458 6.87199 123.882 5.62399C123.306 4.344 122.522 3.448 121.53 2.93599C120.57 2.39199 119.306 2.11999 117.738 2.11999H115.098C114.138 2.11999 113.402 2.2 112.89 2.36C112.378 2.52 112.026 2.856 111.834 3.368C111.674 3.88 111.594 4.664 111.594 5.72V30.296C111.594 31.32 111.674 32.104 111.834 32.648C112.026 33.16 112.378 33.496 112.89 33.656C113.402 33.816 114.138 33.896 115.098 33.896H117.834C119.466 33.896 120.826 33.592 121.914 32.984C123.034 32.376 123.93 31.384 124.602 30.008C125.274 28.6 125.77 26.68 126.09 24.248H127.194C127.098 25.24 127.05 26.52 127.05 28.088C127.05 28.76 127.066 29.736 127.098 31.016C127.162 32.296 127.258 33.624 127.386 35C125.754 34.936 123.914 34.904 121.866 34.904C119.818 34.872 117.994 34.856 116.394 34.856C115.658 34.856 114.682 34.856 113.466 34.856C112.282 34.856 110.986 34.872 109.578 34.904C108.202 34.904 106.794 34.92 105.354 34.952C103.946 34.952 102.602 34.968 101.322 35V34.04C102.378 33.976 103.162 33.848 103.674 33.656C104.218 33.464 104.57 33.08 104.73 32.504C104.922 31.928 105.018 31.064 105.018 29.912V6.10399C105.018 4.91999 104.922 4.05599 104.73 3.512C104.57 2.936 104.218 2.552 103.674 2.36C103.162 2.136 102.378 2.00799 101.322 1.976V1.016C102.602 1.048 103.946 1.08 105.354 1.112C106.794 1.112 108.202 1.128 109.578 1.16C110.986 1.16 112.282 1.16 113.466 1.16C114.682 1.16 115.658 1.16 116.394 1.16C117.866 1.16 119.53 1.16 121.386 1.16C123.274 1.128 124.954 1.08 126.426 1.016ZM118.698 17.432C118.698 17.432 118.698 17.592 118.698 17.912C118.698 18.232 118.698 18.392 118.698 18.392H110.154C110.154 18.392 110.154 18.232 110.154 17.912C110.154 17.592 110.154 17.432 110.154 17.432H118.698ZM120.09 11.096C119.962 12.92 119.898 14.312 119.898 15.272C119.93 16.232 119.946 17.112 119.946 17.912C119.946 18.712 119.962 19.592 119.994 20.552C120.026 21.512 120.106 22.904 120.234 24.728H119.13C118.97 23.64 118.714 22.616 118.362 21.656C118.042 20.664 117.514 19.88 116.778 19.304C116.074 18.696 115.05 18.392 113.706 18.392V17.432C114.698 17.432 115.498 17.224 116.106 16.808C116.746 16.392 117.258 15.864 117.642 15.224C118.026 14.552 118.314 13.864 118.506 13.16C118.73 12.424 118.89 11.736 118.986 11.096H120.09Z" fill="#141414"/>
<path d="M70.0562 1.016C70.8562 1.048 71.8802 1.08 73.1282 1.112C74.3762 1.144 75.6242 1.16 76.8722 1.16C78.4402 1.16 79.9282 1.144 81.3362 1.112C82.7442 1.08 83.7362 1.064 84.3122 1.064C88.0882 1.064 90.9042 1.768 92.7602 3.176C94.6482 4.584 95.5922 6.392 95.5922 8.6C95.5922 9.71999 95.2882 10.84 94.6802 11.96C94.1042 13.08 93.1602 14.088 91.8482 14.984C90.5682 15.88 88.8882 16.552 86.8082 17V17.096C89.6242 17.352 91.8482 17.928 93.4802 18.824C95.1442 19.688 96.3282 20.728 97.0322 21.944C97.7362 23.128 98.0882 24.376 98.0882 25.688C98.0882 27.64 97.5762 29.32 96.5522 30.728C95.5602 32.104 94.1202 33.16 92.2322 33.896C90.3442 34.632 88.0722 35 85.4162 35C84.7122 35 83.6402 34.984 82.2002 34.952C80.7602 34.888 79.0162 34.856 76.9682 34.856C75.6562 34.856 74.3762 34.872 73.1282 34.904C71.8802 34.904 70.8562 34.936 70.0562 35V34.04C71.1122 33.976 71.8962 33.848 72.4082 33.656C72.9522 33.464 73.3042 33.08 73.4642 32.504C73.6562 31.928 73.7522 31.064 73.7522 29.912V6.10399C73.7522 4.91999 73.6562 4.05599 73.4642 3.512C73.3042 2.936 72.9522 2.552 72.4082 2.36C71.8962 2.136 71.1122 2.00799 70.0562 1.976V1.016ZM83.4962 1.976C82.1842 1.976 81.3202 2.248 80.9042 2.792C80.5202 3.336 80.3282 4.43999 80.3282 6.10399V29.912C80.3282 31.032 80.4242 31.88 80.6162 32.456C80.8082 33.032 81.1442 33.416 81.6242 33.608C82.1042 33.8 82.8082 33.896 83.7362 33.896C86.3602 33.896 88.2482 33.176 89.4002 31.736C90.5842 30.264 91.1762 28.184 91.1762 25.496C91.1762 23.032 90.5362 21.128 89.2562 19.784C88.0082 18.44 85.9282 17.768 83.0162 17.768H78.6482C78.6482 17.768 78.6482 17.64 78.6482 17.384C78.6482 17.096 78.6482 16.952 78.6482 16.952H82.7762C84.4082 16.952 85.6722 16.6 86.5682 15.896C87.4642 15.16 88.0722 14.2 88.3922 13.016C88.7122 11.8 88.8722 10.504 88.8722 9.128C88.8722 6.76 88.4562 4.984 87.6242 3.8C86.7922 2.584 85.4162 1.976 83.4962 1.976Z" fill="#141414"/>
<path d="M50.1084 0.343994C53.3724 0.343994 56.2364 1.03199 58.7004 2.408C61.1644 3.784 63.0684 5.768 64.4124 8.36C65.7884 10.92 66.4764 14.04 66.4764 17.72C66.4764 21.304 65.7724 24.44 64.3644 27.128C62.9884 29.816 61.0524 31.912 58.5564 33.416C56.0924 34.92 53.2604 35.672 50.0604 35.672C46.7964 35.672 43.9324 34.984 41.4684 33.608C39.0044 32.232 37.0844 30.248 35.7084 27.656C34.3644 25.064 33.6924 21.944 33.6924 18.296C33.6924 14.712 34.3964 11.576 35.8044 8.888C37.2124 6.2 39.1484 4.104 41.6124 2.6C44.0764 1.09599 46.9084 0.343994 50.1084 0.343994ZM49.9164 1.20799C48.0284 1.20799 46.3804 1.92799 44.9724 3.368C43.5964 4.808 42.5244 6.792 41.7564 9.32C40.9884 11.848 40.6044 14.776 40.6044 18.104C40.6044 21.496 41.0364 24.456 41.9004 26.984C42.7644 29.48 43.9324 31.416 45.4044 32.792C46.8764 34.136 48.4924 34.808 50.2524 34.808C52.1404 34.808 53.7724 34.088 55.1484 32.648C56.5564 31.208 57.6444 29.224 58.4124 26.696C59.1804 24.136 59.5644 21.208 59.5644 17.912C59.5644 14.488 59.1324 11.528 58.2684 9.032C57.4044 6.536 56.2364 4.616 54.7644 3.272C53.3244 1.896 51.7084 1.20799 49.9164 1.20799Z" fill="#141414"/>
<path d="M0.728027 1.016C1.52803 1.048 2.55203 1.08 3.80003 1.112C5.04803 1.144 6.29603 1.16 7.54403 1.16C9.11203 1.16 10.6 1.144 12.008 1.112C13.416 1.08 14.408 1.064 14.984 1.064C17.864 1.064 20.232 1.416 22.088 2.11999C23.976 2.792 25.384 3.752 26.312 5C27.24 6.248 27.704 7.71999 27.704 9.41599C27.704 10.472 27.496 11.56 27.08 12.68C26.664 13.768 25.944 14.776 24.92 15.704C23.896 16.632 22.488 17.4 20.696 18.008C18.936 18.584 16.68 18.872 13.928 18.872H9.32003V17.912H13.448C15.464 17.912 17 17.56 18.056 16.856C19.144 16.12 19.864 15.16 20.216 13.976C20.6 12.76 20.792 11.416 20.792 9.944C20.792 7.416 20.296 5.464 19.304 4.08799C18.312 2.68 16.6 1.976 14.168 1.976C12.856 1.976 11.992 2.248 11.576 2.792C11.192 3.336 11 4.43999 11 6.10399V29.912C11 31.064 11.096 31.928 11.288 32.504C11.48 33.08 11.832 33.464 12.344 33.656C12.888 33.848 13.672 33.976 14.696 34.04V35C13.896 34.936 12.872 34.904 11.624 34.904C10.376 34.872 9.11203 34.856 7.83203 34.856C6.39203 34.856 5.04803 34.872 3.80003 34.904C2.55203 34.904 1.52803 34.936 0.728027 35V34.04C1.78403 33.976 2.56803 33.848 3.08003 33.656C3.62403 33.464 3.97603 33.08 4.13603 32.504C4.32803 31.928 4.42403 31.064 4.42403 29.912V6.10399C4.42403 4.91999 4.32803 4.05599 4.13603 3.512C3.97603 2.936 3.62403 2.552 3.08003 2.36C2.56803 2.136 1.78403 2.00799 0.728027 1.976V1.016ZM9.32003 18.056C10.824 18.12 12.072 18.2 13.064 18.296C14.088 18.36 14.952 18.424 15.656 18.488C16.392 18.552 17.048 18.632 17.624 18.728C20.28 18.984 22.232 19.608 23.48 20.6C24.76 21.56 25.608 23.032 26.024 25.016L27.128 29.96C27.416 31.272 27.72 32.216 28.04 32.792C28.392 33.336 28.888 33.592 29.528 33.56C29.976 33.56 30.36 33.448 30.68 33.224C31 32.968 31.32 32.632 31.64 32.216L32.312 32.792C31.512 33.784 30.664 34.52 29.768 35C28.872 35.448 27.736 35.672 26.36 35.672C24.824 35.672 23.528 35.32 22.472 34.616C21.416 33.88 20.696 32.504 20.312 30.488L19.4 25.688C19.144 24.344 18.84 23.16 18.488 22.136C18.168 21.112 17.72 20.312 17.144 19.736C16.568 19.16 15.72 18.872 14.6 18.872H9.41603L9.32003 18.056Z" fill="#141414"/>
</svg>
