<svg width="153" height="26" viewBox="0 0 153 26" fill="none" xmlns="http://www.w3.org/2000/svg">
<path d="M13.2115 25.38L7.23554 15.12H3.27554V25.38H-0.000460684V0.288004H8.09954C9.99554 0.288004 11.5915 0.612004 12.8875 1.26C14.2075 1.908 15.1915 2.784 15.8395 3.888C16.4875 4.992 16.8115 6.252 16.8115 7.668C16.8115 9.396 16.3075 10.92 15.2995 12.24C14.3155 13.56 12.8275 14.436 10.8355 14.868L17.1355 25.38H13.2115ZM3.27554 12.492H8.09954C9.87554 12.492 11.2075 12.06 12.0955 11.196C12.9835 10.308 13.4275 9.132 13.4275 7.668C13.4275 6.18 12.9835 5.028 12.0955 4.212C11.2315 3.396 9.89954 2.988 8.09954 2.988H3.27554V12.492ZM33.2779 25.632C30.9499 25.632 28.8259 25.092 26.9059 24.012C24.9859 22.908 23.4619 21.384 22.3339 19.44C21.2299 17.472 20.6779 15.264 20.6779 12.816C20.6779 10.368 21.2299 8.172 22.3339 6.228C23.4619 4.26 24.9859 2.736 26.9059 1.656C28.8259 0.552003 30.9499 3.33786e-06 33.2779 3.33786e-06C35.6299 3.33786e-06 37.7659 0.552003 39.6859 1.656C41.6059 2.736 43.1179 4.248 44.2219 6.192C45.3259 8.136 45.8779 10.344 45.8779 12.816C45.8779 15.288 45.3259 17.496 44.2219 19.44C43.1179 21.384 41.6059 22.908 39.6859 24.012C37.7659 25.092 35.6299 25.632 33.2779 25.632ZM33.2779 22.788C35.0299 22.788 36.6019 22.38 37.9939 21.564C39.4099 20.748 40.5139 19.584 41.3059 18.072C42.1219 16.56 42.5299 14.808 42.5299 12.816C42.5299 10.8 42.1219 9.048 41.3059 7.56C40.5139 6.048 39.4219 4.884 38.0299 4.068C36.6379 3.252 35.0539 2.844 33.2779 2.844C31.5019 2.844 29.9179 3.252 28.5259 4.068C27.1339 4.884 26.0299 6.048 25.2139 7.56C24.4219 9.048 24.0259 10.8 24.0259 12.816C24.0259 14.808 24.4219 16.56 25.2139 18.072C26.0299 19.584 27.1339 20.748 28.5259 21.564C29.9419 22.38 31.5259 22.788 33.2779 22.788ZM62.7667 12.456C63.6787 12.6 64.5067 12.972 65.2507 13.572C66.0187 14.172 66.6187 14.916 67.0507 15.804C67.5067 16.692 67.7347 17.64 67.7347 18.648C67.7347 19.92 67.4107 21.072 66.7627 22.104C66.1147 23.112 65.1667 23.916 63.9187 24.516C62.6947 25.092 61.2427 25.38 59.5627 25.38H50.2027V0.288004H59.2027C60.9067 0.288004 62.3587 0.576004 63.5587 1.152C64.7587 1.704 65.6587 2.46 66.2587 3.42C66.8587 4.38 67.1587 5.46 67.1587 6.66C67.1587 8.148 66.7507 9.384 65.9347 10.368C65.1427 11.328 64.0867 12.024 62.7667 12.456ZM53.4787 11.124H58.9867C60.5227 11.124 61.7107 10.764 62.5507 10.044C63.3907 9.324 63.8107 8.328 63.8107 7.056C63.8107 5.784 63.3907 4.788 62.5507 4.068C61.7107 3.348 60.4987 2.988 58.9147 2.988H53.4787V11.124ZM59.2747 22.68C60.9067 22.68 62.1787 22.296 63.0907 21.528C64.0027 20.76 64.4587 19.692 64.4587 18.324C64.4587 16.932 63.9787 15.84 63.0187 15.048C62.0587 14.232 60.7747 13.824 59.1667 13.824H53.4787V22.68H59.2747ZM75.5568 2.952V11.34H84.7008V14.04H75.5568V22.68H85.7808V25.38H72.2808V0.252004H85.7808V2.952H75.5568ZM103.95 25.38L97.9738 15.12H94.0138V25.38H90.7378V0.288004H98.8378C100.734 0.288004 102.33 0.612004 103.626 1.26C104.946 1.908 105.93 2.784 106.578 3.888C107.226 4.992 107.55 6.252 107.55 7.668C107.55 9.396 107.046 10.92 106.038 12.24C105.054 13.56 103.566 14.436 101.574 14.868L107.874 25.38H103.95ZM94.0138 12.492H98.8378C100.614 12.492 101.946 12.06 102.834 11.196C103.722 10.308 104.166 9.132 104.166 7.668C104.166 6.18 103.722 5.028 102.834 4.212C101.97 3.396 100.638 2.988 98.8378 2.988H94.0138V12.492ZM128.084 0.288004V2.952H121.244V25.38H117.968V2.952H111.092V0.288004H128.084ZM146.949 19.8H136.005L133.989 25.38H130.533L139.605 0.432004H143.385L152.421 25.38H148.965L146.949 19.8ZM146.013 17.136L141.477 4.464L136.941 17.136H146.013Z" fill="#F6F6F6"/>
</svg>
