<svg width="135" height="26" viewBox="0 0 135 26" fill="none" xmlns="http://www.w3.org/2000/svg">
<path d="M5.516 24.64H5.696V25H0.62V24.64H0.8C0.968 24.64 1.124 24.568 1.268 24.424C1.412 24.28 1.532 24.112 1.628 23.92C1.748 23.728 1.832 23.524 1.88 23.308C1.928 23.068 1.952 22.852 1.952 22.66V3.472C1.952 3.304 1.928 3.112 1.88 2.896C1.832 2.68 1.748 2.476 1.628 2.284C1.532 2.092 1.412 1.936 1.268 1.816C1.124 1.672 0.968 1.6 0.8 1.6H0.62V1.24H6.884C9.284 1.24 11.132 1.708 12.428 2.644C13.748 3.58 14.408 4.96 14.408 6.784C14.408 7.696 14.252 8.5 13.94 9.196C13.652 9.868 13.256 10.456 12.752 10.96C12.248 11.44 11.648 11.836 10.952 12.148C10.28 12.436 9.56 12.652 8.792 12.796L11.384 16.756C12.008 17.716 12.644 18.664 13.292 19.6C13.94 20.512 14.576 21.46 15.2 22.444C15.368 22.684 15.548 22.936 15.74 23.2C15.956 23.464 16.172 23.704 16.388 23.92C16.628 24.136 16.868 24.316 17.108 24.46C17.372 24.58 17.636 24.64 17.9 24.64V25H16.352C15.392 25 14.6 24.772 13.976 24.316C13.376 23.836 12.872 23.284 12.464 22.66C11.384 21.076 10.304 19.468 9.224 17.836C8.168 16.204 7.112 14.596 6.056 13.012C5.792 12.988 5.504 12.964 5.192 12.94C4.904 12.892 4.628 12.844 4.364 12.796V22.66C4.364 22.852 4.388 23.068 4.436 23.308C4.484 23.524 4.556 23.728 4.652 23.92C4.772 24.112 4.892 24.28 5.012 24.424C5.156 24.568 5.324 24.64 5.516 24.64ZM4.364 2.464V11.608H4.544C4.736 11.632 5.036 11.656 5.444 11.68C5.876 11.68 6.404 11.68 7.028 11.68C7.532 11.68 8.06 11.608 8.612 11.464C9.188 11.296 9.716 11.032 10.196 10.672C10.7 10.288 11.108 9.796 11.42 9.196C11.756 8.596 11.924 7.84 11.924 6.928C11.924 6.016 11.744 5.272 11.384 4.696C11.048 4.12 10.568 3.664 9.944 3.328C9.344 2.992 8.612 2.764 7.748 2.644C6.884 2.524 5.936 2.464 4.904 2.464H4.364ZM32.1934 0.879999C34.0654 0.879999 35.7454 1.216 37.2334 1.888C38.7214 2.536 39.9814 3.424 41.0134 4.552C42.0694 5.656 42.8734 6.952 43.4254 8.44C44.0014 9.904 44.2894 11.44 44.2894 13.048C44.2894 14.848 43.9534 16.504 43.2814 18.016C42.6334 19.528 41.7334 20.824 40.5814 21.904C39.4294 22.984 38.0854 23.836 36.5494 24.46C35.0374 25.06 33.4174 25.36 31.6894 25.36C29.8414 25.36 28.1734 25.024 26.6854 24.352C25.2214 23.68 23.9734 22.792 22.9414 21.688C21.9334 20.584 21.1534 19.312 20.6014 17.872C20.0494 16.432 19.7734 14.932 19.7734 13.372C19.7734 11.836 20.0494 10.324 20.6014 8.836C21.1534 7.324 21.9574 5.98 23.0134 4.804C24.0934 3.628 25.4014 2.68 26.9374 1.96C28.4734 1.24 30.2254 0.879999 32.1934 0.879999ZM32.1574 24.1C33.7654 24.028 35.1694 23.668 36.3694 23.02C37.5934 22.348 38.6134 21.508 39.4294 20.5C40.2454 19.468 40.8454 18.34 41.2294 17.116C41.6374 15.892 41.8414 14.68 41.8414 13.48C41.8414 12.16 41.6014 10.828 41.1214 9.484C40.6414 8.14 39.9574 6.928 39.0694 5.848C38.1814 4.744 37.1134 3.856 35.8654 3.184C34.6414 2.488 33.2614 2.14 31.7254 2.14C30.2374 2.14 28.9054 2.476 27.7294 3.148C26.5534 3.796 25.5454 4.636 24.7054 5.668C23.8894 6.7 23.2654 7.852 22.8334 9.124C22.4014 10.396 22.1854 11.644 22.1854 12.868C22.1854 14.188 22.4374 15.52 22.9414 16.864C23.4454 18.184 24.1414 19.384 25.0294 20.464C25.9174 21.544 26.9614 22.42 28.1614 23.092C29.3854 23.764 30.7174 24.1 32.1574 24.1ZM47.4481 24.64H47.6281C47.7961 24.64 47.9521 24.568 48.0961 24.424C48.2401 24.28 48.3601 24.112 48.4561 23.92C48.5761 23.728 48.6601 23.524 48.7081 23.308C48.7561 23.068 48.7801 22.852 48.7801 22.66V3.508C48.7801 3.34 48.7561 3.148 48.7081 2.932C48.6601 2.716 48.5761 2.512 48.4561 2.32C48.3601 2.104 48.2281 1.936 48.0601 1.816C47.9161 1.672 47.7481 1.6 47.5561 1.6H47.3761V1.24H53.2801C55.5121 1.24 57.2521 1.732 58.5001 2.716C59.7721 3.7 60.4081 5.008 60.4081 6.64C60.4081 7.336 60.2881 7.96 60.0481 8.512C59.8081 9.064 59.4961 9.556 59.1121 9.988C58.7521 10.42 58.3561 10.792 57.9241 11.104C57.4921 11.392 57.0841 11.632 56.7001 11.824C57.7081 12.016 58.5481 12.34 59.2201 12.796C59.8921 13.252 60.4321 13.78 60.8401 14.38C61.2721 14.956 61.5721 15.58 61.7401 16.252C61.9081 16.924 61.9921 17.584 61.9921 18.232C61.9921 19.48 61.7641 20.536 61.3081 21.4C60.8521 22.24 60.2401 22.936 59.4721 23.488C58.7281 24.016 57.8641 24.4 56.8801 24.64C55.9201 24.88 54.9241 25 53.8921 25H47.4481V24.64ZM59.5441 18.448C59.3521 16.6 58.7281 15.172 57.6721 14.164C56.6161 13.156 55.1281 12.652 53.2081 12.652H51.1921V23.812H53.2801C55.2241 23.812 56.7481 23.38 57.8521 22.516C58.9801 21.628 59.5441 20.404 59.5441 18.844V18.448ZM58.0681 6.964C57.9961 5.572 57.5041 4.468 56.5921 3.652C55.7041 2.836 54.5041 2.428 52.9921 2.428H51.1921V11.5H53.0641C54.0721 11.5 54.8881 11.368 55.5121 11.104C56.1601 10.84 56.6761 10.504 57.0601 10.096C57.4441 9.664 57.7081 9.196 57.8521 8.692C57.9961 8.188 58.0681 7.696 58.0681 7.216V6.964ZM65.0614 24.64H65.2414C65.4334 24.64 65.6014 24.58 65.7454 24.46C65.8894 24.316 66.0094 24.148 66.1054 23.956C66.2254 23.764 66.3094 23.56 66.3574 23.344C66.4294 23.128 66.4654 22.924 66.4654 22.732V3.472C66.4654 3.304 66.4294 3.112 66.3574 2.896C66.3094 2.68 66.2254 2.476 66.1054 2.284C66.0094 2.092 65.8894 1.936 65.7454 1.816C65.6014 1.672 65.4334 1.6 65.2414 1.6H65.0614V1.24H78.9214V4.588H78.5614C78.5134 4.036 78.2974 3.556 77.9134 3.148C77.5294 2.716 76.9294 2.5 76.1134 2.5H68.8774V11.608H74.8534C75.4054 11.608 75.8614 11.44 76.2214 11.104C76.6054 10.768 76.7974 10.372 76.7974 9.916H77.1574V14.416H76.7974C76.7974 13.984 76.6174 13.612 76.2574 13.3C75.8974 12.988 75.4294 12.832 74.8534 12.832H68.8774V23.74H76.7614C77.2174 23.74 77.6134 23.632 77.9494 23.416C78.2854 23.2 78.5614 22.948 78.7774 22.66C79.0174 22.348 79.1854 22.024 79.2814 21.688C79.4014 21.328 79.4614 21.028 79.4614 20.788H79.8214V25H65.0614V24.64ZM87.4301 24.64H87.6101V25H82.5341V24.64H82.7141C82.8821 24.64 83.0381 24.568 83.1821 24.424C83.3261 24.28 83.4461 24.112 83.5421 23.92C83.6621 23.728 83.7461 23.524 83.7941 23.308C83.8421 23.068 83.8661 22.852 83.8661 22.66V3.472C83.8661 3.304 83.8421 3.112 83.7941 2.896C83.7461 2.68 83.6621 2.476 83.5421 2.284C83.4461 2.092 83.3261 1.936 83.1821 1.816C83.0381 1.672 82.8821 1.6 82.7141 1.6H82.5341V1.24H88.7981C91.1981 1.24 93.0461 1.708 94.3421 2.644C95.6621 3.58 96.3221 4.96 96.3221 6.784C96.3221 7.696 96.1661 8.5 95.8541 9.196C95.5661 9.868 95.1701 10.456 94.6661 10.96C94.1621 11.44 93.5621 11.836 92.8661 12.148C92.1941 12.436 91.4741 12.652 90.7061 12.796L93.2981 16.756C93.9221 17.716 94.5581 18.664 95.2061 19.6C95.8541 20.512 96.4901 21.46 97.1141 22.444C97.2821 22.684 97.4621 22.936 97.6541 23.2C97.8701 23.464 98.0861 23.704 98.3021 23.92C98.5421 24.136 98.7821 24.316 99.0221 24.46C99.2861 24.58 99.5501 24.64 99.8141 24.64V25H98.2661C97.3061 25 96.5141 24.772 95.8901 24.316C95.2901 23.836 94.7861 23.284 94.3781 22.66C93.2981 21.076 92.2181 19.468 91.1381 17.836C90.0821 16.204 89.0261 14.596 87.9701 13.012C87.7061 12.988 87.4181 12.964 87.1061 12.94C86.8181 12.892 86.5421 12.844 86.2781 12.796V22.66C86.2781 22.852 86.3021 23.068 86.3501 23.308C86.3981 23.524 86.4701 23.728 86.5661 23.92C86.6861 24.112 86.8061 24.28 86.9261 24.424C87.0701 24.568 87.2381 24.64 87.4301 24.64ZM86.2781 2.464V11.608H86.4581C86.6501 11.632 86.9501 11.656 87.3581 11.68C87.7901 11.68 88.3181 11.68 88.9421 11.68C89.4461 11.68 89.9741 11.608 90.5261 11.464C91.1021 11.296 91.6301 11.032 92.1101 10.672C92.6141 10.288 93.0221 9.796 93.3341 9.196C93.6701 8.596 93.8381 7.84 93.8381 6.928C93.8381 6.016 93.6581 5.272 93.2981 4.696C92.9621 4.12 92.4821 3.664 91.8581 3.328C91.2581 2.992 90.5261 2.764 89.6621 2.644C88.7981 2.524 87.8501 2.464 86.8181 2.464H86.2781ZM111.083 24.64H111.263V25H106.151V24.64H106.331C106.523 24.64 106.691 24.568 106.835 24.424C106.979 24.28 107.099 24.112 107.195 23.92C107.315 23.728 107.399 23.524 107.447 23.308C107.495 23.068 107.519 22.852 107.519 22.66V2.572H103.343C102.959 2.572 102.623 2.656 102.335 2.824C102.047 2.992 101.807 3.208 101.615 3.472C101.423 3.712 101.279 3.988 101.183 4.3C101.087 4.588 101.039 4.876 101.039 5.164H100.679V1.24H116.843V5.164H116.483C116.483 4.876 116.435 4.588 116.339 4.3C116.243 3.988 116.099 3.712 115.907 3.472C115.715 3.208 115.475 2.992 115.187 2.824C114.899 2.656 114.563 2.572 114.179 2.572H109.931V22.66C109.931 22.852 109.955 23.068 110.003 23.308C110.051 23.524 110.123 23.728 110.219 23.92C110.339 24.112 110.459 24.28 110.579 24.424C110.723 24.568 110.891 24.64 111.083 24.64ZM129.227 24.64H129.407C129.983 24.64 130.271 24.376 130.271 23.848C130.271 23.656 130.235 23.452 130.163 23.236L126.923 14.488H120.623L117.491 23.092C117.419 23.284 117.383 23.464 117.383 23.632C117.383 23.944 117.467 24.196 117.635 24.388C117.803 24.556 117.983 24.64 118.175 24.64H118.355V25H114.359V24.64H114.539C114.851 24.64 115.151 24.46 115.439 24.1C115.751 23.716 116.003 23.272 116.195 22.768L124.439 0.807998L132.503 22.552C132.671 23.032 132.899 23.5 133.187 23.956C133.499 24.412 133.895 24.64 134.375 24.64H134.555V25H129.227V24.64ZM120.983 13.264H126.527L123.755 5.74L120.983 13.264Z" fill="#121A03"/>
</svg>
