<svg width="20" height="20" viewBox="0 0 20 20" fill="none" xmlns="http://www.w3.org/2000/svg">
<path d="M12.7082 4.16663C12.4165 4.16663 12.17 4.06593 11.9686 3.86454C11.7672 3.66315 11.6665 3.41663 11.6665 3.12496C11.6665 2.83329 11.7672 2.58676 11.9686 2.38538C12.17 2.18399 12.4165 2.08329 12.7082 2.08329C12.9998 2.08329 13.2464 2.18399 13.4478 2.38538C13.6491 2.58676 13.7498 2.83329 13.7498 3.12496C13.7498 3.41663 13.6491 3.66315 13.4478 3.86454C13.2464 4.06593 12.9998 4.16663 12.7082 4.16663ZM12.7082 17.9166C12.4165 17.9166 12.17 17.8159 11.9686 17.6145C11.7672 17.4132 11.6665 17.1666 11.6665 16.875C11.6665 16.5833 11.7672 16.3368 11.9686 16.1354C12.17 15.934 12.4165 15.8333 12.7082 15.8333C12.9998 15.8333 13.2464 15.934 13.4478 16.1354C13.6491 16.3368 13.7498 16.5833 13.7498 16.875C13.7498 17.1666 13.6491 17.4132 13.4478 17.6145C13.2464 17.8159 12.9998 17.9166 12.7082 17.9166ZM16.0415 7.08329C15.7498 7.08329 15.5033 6.9826 15.3019 6.78121C15.1005 6.57982 14.9998 6.33329 14.9998 6.04163C14.9998 5.74996 15.1005 5.50343 15.3019 5.30204C15.5033 5.10065 15.7498 4.99996 16.0415 4.99996C16.3332 4.99996 16.5797 5.10065 16.7811 5.30204C16.9825 5.50343 17.0832 5.74996 17.0832 6.04163C17.0832 6.33329 16.9825 6.57982 16.7811 6.78121C16.5797 6.9826 16.3332 7.08329 16.0415 7.08329ZM16.0415 15C15.7498 15 15.5033 14.8993 15.3019 14.6979C15.1005 14.4965 14.9998 14.25 14.9998 13.9583C14.9998 13.6666 15.1005 13.4201 15.3019 13.2187C15.5033 13.0173 15.7498 12.9166 16.0415 12.9166C16.3332 12.9166 16.5797 13.0173 16.7811 13.2187C16.9825 13.4201 17.0832 13.6666 17.0832 13.9583C17.0832 14.25 16.9825 14.4965 16.7811 14.6979C16.5797 14.8993 16.3332 15 16.0415 15ZM17.2915 11.0416C16.9998 11.0416 16.7533 10.9409 16.5519 10.7395C16.3505 10.5382 16.2498 10.2916 16.2498 9.99996C16.2498 9.70829 16.3505 9.46177 16.5519 9.26038C16.7533 9.05899 16.9998 8.95829 17.2915 8.95829C17.5832 8.95829 17.8297 9.05899 18.0311 9.26038C18.2325 9.46177 18.3332 9.70829 18.3332 9.99996C18.3332 10.2916 18.2325 10.5382 18.0311 10.7395C17.8297 10.9409 17.5832 11.0416 17.2915 11.0416ZM9.99984 18.3333C8.84706 18.3333 7.76373 18.1145 6.74984 17.677C5.73595 17.2395 4.854 16.6458 4.104 15.8958C3.354 15.1458 2.76025 14.2638 2.32275 13.25C1.88525 12.2361 1.6665 11.1527 1.6665 9.99996C1.6665 8.84718 1.88525 7.76385 2.32275 6.74996C2.76025 5.73607 3.354 4.85413 4.104 4.10413C4.854 3.35413 5.73595 2.76038 6.74984 2.32288C7.76373 1.88538 8.84706 1.66663 9.99984 1.66663V3.33329C8.13873 3.33329 6.56234 3.97913 5.27067 5.27079C3.979 6.56246 3.33317 8.13885 3.33317 9.99996C3.33317 11.8611 3.979 13.4375 5.27067 14.7291C6.56234 16.0208 8.13873 16.6666 9.99984 16.6666V18.3333ZM12.7498 13.9166L9.1665 10.3333V5.83329H10.8332V9.66663L13.9165 12.75L12.7498 13.9166Z" fill="#7A7A7A"/>
</svg>
